<svg width="48" height="50" viewBox="0 0 48 50" fill="none" xmlns="http://www.w3.org/2000/svg">
<path d="M44.9765 9.12367H32.7032C37.1788 6.73269 37.9098 4.55541 37.5543 3.0037C37.082 0.939695 34.4285 -0.297521 31.248 0.061795C28.5788 0.363567 25.6032 1.84679 23.9996 4.96485C22.3954 1.84679 19.4204 0.363531 16.7512 0.061795C13.5704 -0.29647 10.9183 0.939731 10.446 3.0037C10.0909 4.55532 10.8208 6.73269 15.2972 9.12367H3.02293C1.35579 9.12367 0 10.4803 0 12.1466V17.3335C0 17.9851 0.527396 18.5125 1.17901 18.5125H2.93876V46.6102C2.93876 48.2766 4.29536 49.6331 5.96169 49.6331H42.038C43.7051 49.6331 45.0616 48.2765 45.0616 46.6102L45.062 18.5125H46.821C47.4719 18.5125 48 17.9851 48 17.3335V12.1466C48 10.4795 46.6436 9.12367 44.9765 9.12367ZM31.5132 2.40463C33.6188 2.17128 35.1116 2.89974 35.2562 3.52929C35.4077 4.19423 34.1572 6.48628 26.7305 9.12259H25.2434C25.6953 4.6729 28.6898 2.72424 31.5132 2.40463ZM12.7452 3.52929C12.889 2.89978 14.3825 2.16784 16.4874 2.40463C19.3108 2.72359 22.3053 4.67209 22.7565 9.1225H21.2708C13.8441 6.48619 12.5929 4.19429 12.7452 3.52929ZM5.29671 46.6089V18.5113H19.8814V47.2727H5.96145C5.59441 47.2727 5.29671 46.9752 5.29671 46.6089ZM42.7034 46.6089C42.7034 46.9759 42.4047 47.2738 42.0377 47.2738H28.1187V18.5115H42.7033L42.7034 46.6089Z" fill="#FFBC0F"/>
<path d="M44.9765 9.12367H32.7032C37.1788 6.73269 37.9098 4.55541 37.5543 3.0037C37.082 0.939695 34.4285 -0.297521 31.248 0.061795C28.5788 0.363567 25.6032 1.84679 23.9996 4.96485C22.3954 1.84679 19.4204 0.363531 16.7512 0.061795C13.5704 -0.29647 10.9183 0.939731 10.446 3.0037C10.0909 4.55532 10.8208 6.73269 15.2972 9.12367H3.02293C1.35579 9.12367 0 10.4803 0 12.1466V17.3335C0 17.9851 0.527396 18.5125 1.17901 18.5125H2.93876V46.6102C2.93876 48.2766 4.29536 49.6331 5.96169 49.6331H42.038C43.7051 49.6331 45.0616 48.2765 45.0616 46.6102L45.062 18.5125H46.821C47.4719 18.5125 48 17.9851 48 17.3335V12.1466C48 10.4795 46.6441 9.12367 44.9771 9.12367H44.9765ZM45.6415 12.1466V16.1545H43.8895C43.887 16.1545 43.8838 16.1538 43.8817 16.1538C43.8793 16.1538 43.8761 16.1545 43.874 16.1545H28.1189V11.4816H44.9771C45.3438 11.4816 45.6417 11.7795 45.6417 12.1465L45.6415 12.1466ZM31.5132 2.40463C33.6188 2.17128 35.1116 2.89974 35.2562 3.52929C35.4077 4.19423 34.1572 6.48628 26.7305 9.12259H25.2434C25.6953 4.6729 28.6898 2.72433 31.5132 2.40472V2.40463ZM12.7452 3.52929C12.889 2.89978 14.3825 2.16784 16.4874 2.40463C19.3108 2.72359 22.3053 4.67209 22.7565 9.1225H21.2708C13.8441 6.48619 12.5929 4.1942 12.7452 3.5292V3.52929ZM3.02296 11.4812H19.8821V16.1541H2.35822V12.1462C2.35822 11.7792 2.65613 11.4813 3.02316 11.4813L3.02296 11.4812ZM5.29671 46.6089V18.5113H19.8814V47.2727H5.96145C5.59441 47.2727 5.2965 46.9748 5.2965 46.6085L5.29671 46.6089ZM22.2403 47.2731V11.4807H25.7608V47.274H22.2403V47.2731ZM42.7034 46.6089C42.7034 46.9759 42.4047 47.2738 42.0377 47.2738H28.1187V18.5115H42.7033L42.7034 46.6089Z" fill="black"/>
</svg>
