<svg width="44" height="322" viewBox="0 0 44 322" fill="none" xmlns="http://www.w3.org/2000/svg">
<path d="M23.0472 162.026C23.0472 163.721 22.7941 165.26 22.2877 166.645C21.7814 168.019 21.0684 169.197 20.1487 170.179C19.2291 171.15 18.1234 171.905 16.8317 172.442C15.5504 172.969 14.1347 173.233 12.5847 173.233C11.0347 173.233 9.61905 172.969 8.33772 172.442C7.05639 171.905 5.95589 171.15 5.03622 170.179C4.11655 169.197 3.40355 168.019 2.89722 166.645C2.39089 165.26 2.13772 163.721 2.13772 162.026C2.13772 160.342 2.39089 158.812 2.89722 157.438C3.40355 156.053 4.11655 154.875 5.03622 153.904C5.95589 152.922 7.05639 152.163 8.33772 151.625C9.61905 151.088 11.0347 150.819 12.5847 150.819C14.1347 150.819 15.5504 151.088 16.8317 151.625C18.1234 152.152 19.2291 152.907 20.1487 153.888C21.0684 154.87 21.7814 156.053 22.2877 157.438C22.7941 158.812 23.0472 160.342 23.0472 162.026ZM21.4042 162.026C21.4042 160.497 21.1924 159.122 20.7687 157.903C20.3451 156.684 19.7457 155.65 18.9707 154.803C18.1957 153.956 17.2657 153.31 16.1807 152.865C15.0957 152.411 13.8971 152.183 12.5847 152.183C11.2827 152.183 10.0892 152.411 9.00422 152.865C7.91922 153.31 6.98405 153.956 6.19872 154.803C5.42372 155.65 4.81922 156.684 4.38522 157.903C3.96155 159.122 3.74972 160.497 3.74972 162.026C3.74972 163.566 3.96155 164.945 4.38522 166.164C4.81922 167.373 5.42372 168.402 6.19872 169.249C6.98405 170.096 7.91922 170.742 9.00422 171.186C10.0892 171.631 11.2827 171.853 12.5847 171.853C13.8971 171.853 15.0957 171.631 16.1807 171.186C17.2657 170.742 18.1957 170.096 18.9707 169.249C19.7457 168.402 20.3451 167.373 20.7687 166.164C21.1924 164.945 21.4042 163.566 21.4042 162.026ZM33.4792 161.902C34.4505 161.902 35.3185 161.788 36.0832 161.561C36.8582 161.323 37.5092 160.987 38.0362 160.553C38.5735 160.119 38.9817 159.598 39.2607 158.988C39.5397 158.378 39.6792 157.691 39.6792 156.926C39.6792 155.366 39.1677 154.209 38.1447 153.454C37.132 152.7 35.6492 152.323 33.6962 152.323H29.6817V161.902H33.4792ZM43.2132 173H41.8492C41.6735 173 41.5237 172.974 41.3997 172.922C41.286 172.86 41.1775 172.752 41.0742 172.597L34.0372 163.7C33.9545 163.586 33.8667 163.488 33.7737 163.405C33.691 163.323 33.5929 163.261 33.4792 163.219C33.3759 163.168 33.2467 163.132 33.0917 163.111C32.947 163.09 32.7662 163.08 32.5492 163.08H29.6817V173H28.0852V151.067H33.6962C36.2175 151.067 38.1034 151.558 39.3537 152.54C40.6144 153.511 41.2447 154.942 41.2447 156.833C41.2447 157.67 41.1 158.435 40.8107 159.127C40.5214 159.82 40.1029 160.429 39.5552 160.956C39.0179 161.473 38.3617 161.897 37.5867 162.227C36.822 162.558 35.9592 162.78 34.9982 162.894C35.2462 163.049 35.4684 163.256 35.6647 163.514L43.2132 173Z" fill="black"/>
<rect x="22" width="1" height="123" fill="#C4C4C4"/>
<rect x="22" y="199" width="1" height="123" fill="#C4C4C4"/>
</svg>
