<svg width="136" height="136" viewBox="0 0 136 136" fill="none" xmlns="http://www.w3.org/2000/svg">
<path d="M71.2392 0H84.1904V6.47558H77.7148V12.9512H64.7617V32.3828H51.8105V25.9052H58.2861V6.47558H71.2392V0Z" fill="black"/>
<path d="M0 0V45.3344H45.3344V0H0ZM38.8574 38.8574H6.47704V6.47704H38.8574V38.8574Z" fill="black"/>
<path d="M90.6685 0V45.3344H136V0H90.6685ZM129.523 38.8574H97.1455V6.47704H129.526V38.8574H129.523Z" fill="black"/>
<path d="M12.9512 12.9512H32.3808V32.3808H12.9512V12.9512Z" fill="black"/>
<path d="M103.618 12.9512H123.047V32.3808H103.618V12.9512Z" fill="black"/>
<path d="M71.2412 19.4297H77.7168V25.9053H71.2412V19.4297Z" fill="black"/>
<path d="M77.7163 25.9058H84.1919V51.8115H77.7163V38.8574H71.2407V45.3349H64.7632V32.3838H77.7163V25.9058Z" fill="black"/>
<path d="M51.81 38.8574H58.2856V45.3349H64.7612V51.8115H58.2856V64.7627H64.7612V58.2871H71.2387V51.8115H77.7143V71.2402H64.7612V77.7158H58.2856V71.2402H51.81V58.2871H38.856V51.8115H51.81V38.8574Z" fill="black"/>
<path d="M12.9512 51.8115H25.9023V58.289H12.9512V51.8115Z" fill="black"/>
<path d="M84.1885 51.8115H97.1425V58.2871H90.667V64.7627H84.1885V51.8115Z" fill="black"/>
<path d="M103.618 51.8115H110.095V58.289H103.618V51.8115Z" fill="black"/>
<path d="M0 58.2861H12.9512V64.7617H19.4297V71.2392H12.9512V77.7148H6.47558V64.7617H0V58.2861Z" fill="black"/>
<path d="M25.9053 58.2861H38.8564V64.7617H32.3809V71.2392H38.8564V77.7148H25.9053V58.2861Z" fill="black"/>
<path d="M110.096 58.2861H116.574V64.7617H123.05V84.1904H116.574V77.7148H103.618V84.1904H97.1445V71.2392H110.096V58.2861Z" fill="black"/>
<path d="M38.856 64.7607H45.3315V71.2383H38.856V64.7607Z" fill="black"/>
<path d="M129.522 64.7607H136V71.2383H129.522V64.7607Z" fill="black"/>
<path d="M45.3335 71.2402H51.81V84.1914H38.856V77.7158H45.3335V71.2402Z" fill="black"/>
<path d="M77.7158 71.2402H84.1933V77.7158H77.7158V71.2402Z" fill="black"/>
<path d="M0 77.7148H6.47558V84.1924H0V77.7148Z" fill="black"/>
<path d="M12.9512 77.7148H19.4268V84.1924H12.9512V77.7148Z" fill="black"/>
<path d="M64.7598 77.7148H77.7128V84.1904H71.2373V97.1445H64.7598V110.096H58.2842V97.1445H51.8086V84.1904H58.2842V90.667H64.7598V77.7148Z" fill="black"/>
<path d="M84.1885 77.7148H90.666V84.1924H84.1885V77.7148Z" fill="black"/>
<path d="M129.522 77.7148H136V84.1924H129.522V77.7148Z" fill="black"/>
<path d="M77.7158 84.1895H84.1933V97.1406H77.7158V84.1895Z" fill="black"/>
<path d="M110.095 84.1895H116.573V97.1406H110.095V84.1895Z" fill="black"/>
<path d="M123.049 84.1895H129.525V90.665H123.049V84.1895Z" fill="black"/>
<path d="M97.1454 90.6665H103.619V97.144H110.097V110.095H129.524V116.571H103.619V129.523H97.145V116.571H90.6694V123.049H84.1909V129.523H90.6694V136H58.2866V129.523H77.7153V116.571H84.1909V97.144H97.145L97.1454 90.6665Z" fill="black"/>
<path d="M0 90.6665V136.001H45.3344V90.6665H0ZM38.8574 129.524H6.47704V97.146H38.8574V129.524Z" fill="black"/>
<path d="M71.2412 97.1436H77.7168V103.619H71.2412V97.1436Z" fill="black"/>
<path d="M116.575 97.1436H129.524V103.619H116.575V97.1436Z" fill="black"/>
<path d="M12.9512 103.618H32.3808V123.048H12.9512V103.618Z" fill="black"/>
<path d="M129.522 103.618H136V110.096H129.522V103.618Z" fill="black"/>
<path d="M51.8105 110.095H58.2861V116.571H64.7617V123.049H51.8105V110.095Z" fill="black"/>
<path d="M64.7612 110.095H77.7124V116.571H64.7612V110.095Z" fill="black"/>
<path d="M116.575 123.049H123.05V129.524H116.575V123.049Z" fill="black"/>
<path d="M129.522 123.049H136V129.524H129.522V123.049Z" fill="black"/>
<path d="M103.618 129.523H110.095V136.001H103.618V129.523Z" fill="black"/>
</svg>
