<svg width="600" height="200" viewBox="0 0 600 200" fill="none" xmlns="http://www.w3.org/2000/svg">
<rect x="0.5" y="0.5" width="599" height="199" stroke="black"/>
<path d="M117.429 84.296V89.6H106.989V119H100.533V89.6H90.0448V84.296H117.429ZM148.508 119H143.516C142.956 119 142.492 118.864 142.124 118.592C141.772 118.304 141.516 117.952 141.356 117.536L138.764 110.456H124.388L121.796 117.536C121.668 117.904 121.412 118.24 121.028 118.544C120.66 118.848 120.204 119 119.66 119H114.644L128.276 84.296H134.876L148.508 119ZM126.044 105.896H137.108L132.884 94.352C132.692 93.84 132.476 93.24 132.236 92.552C132.012 91.848 131.788 91.088 131.564 90.272C131.34 91.088 131.116 91.848 130.892 92.552C130.684 93.256 130.476 93.872 130.268 94.4L126.044 105.896ZM158.754 106.784V119H152.298V84.296H163.602C165.922 84.296 167.93 84.568 169.626 85.112C171.322 85.656 172.722 86.416 173.826 87.392C174.93 88.368 175.746 89.536 176.274 90.896C176.802 92.256 177.066 93.744 177.066 95.36C177.066 97.04 176.786 98.584 176.226 99.992C175.666 101.384 174.826 102.584 173.706 103.592C172.586 104.6 171.186 105.384 169.506 105.944C167.826 106.504 165.858 106.784 163.602 106.784H158.754ZM158.754 101.744H163.602C164.786 101.744 165.818 101.6 166.698 101.312C167.578 101.008 168.306 100.584 168.882 100.04C169.458 99.48 169.89 98.808 170.178 98.024C170.466 97.224 170.61 96.336 170.61 95.36C170.61 94.432 170.466 93.592 170.178 92.84C169.89 92.088 169.458 91.448 168.882 90.92C168.306 90.392 167.578 89.992 166.698 89.72C165.818 89.432 164.786 89.288 163.602 89.288H158.754V101.744ZM220.643 119H214.139V103.832H197.867V119H191.363V84.296H197.867V99.224H214.139V84.296H220.643V119ZM249.533 84.296V89.432H234.149V99.056H246.269V104.024H234.149V113.84H249.533V119H227.645V84.296H249.533ZM261.785 105.44V119H255.329V84.296H265.913C268.281 84.296 270.305 84.544 271.985 85.04C273.681 85.52 275.065 86.2 276.137 87.08C277.225 87.96 278.017 89.016 278.513 90.248C279.025 91.464 279.281 92.808 279.281 94.28C279.281 95.448 279.105 96.552 278.753 97.592C278.417 98.632 277.921 99.576 277.265 100.424C276.625 101.272 275.825 102.016 274.865 102.656C273.921 103.296 272.841 103.808 271.625 104.192C272.441 104.656 273.145 105.32 273.737 106.184L282.425 119H276.617C276.057 119 275.577 118.888 275.177 118.664C274.793 118.44 274.465 118.12 274.193 117.704L266.897 106.592C266.625 106.176 266.321 105.88 265.985 105.704C265.665 105.528 265.185 105.44 264.545 105.44H261.785ZM261.785 100.808H265.817C267.033 100.808 268.089 100.656 268.985 100.352C269.897 100.048 270.641 99.632 271.217 99.104C271.809 98.56 272.249 97.92 272.537 97.184C272.825 96.448 272.969 95.64 272.969 94.76C272.969 93 272.385 91.648 271.217 90.704C270.065 89.76 268.297 89.288 265.913 89.288H261.785V100.808ZM308.455 84.296V89.432H293.071V99.056H305.191V104.024H293.071V113.84H308.455V119H286.567V84.296H308.455Z" fill="black"/>
<rect x="400" width="200" height="200" fill="black"/>
<path d="M534.219 95.3854C532.228 95.3854 530.364 96.0153 528.852 97.0735V95.713C528.852 90.5228 524.619 86.315 519.454 86.315C517.464 86.315 515.599 86.9449 514.088 88.0031V83.5436C514.088 78.3534 509.855 74.1457 504.69 74.1457C502.699 74.1457 500.835 74.7756 499.323 75.8338V55.6019C499.323 50.4117 495.09 46.204 489.925 46.204C484.735 46.204 480.527 50.4117 480.527 55.6019V105.539L479.393 104.33C474.707 99.3156 465.359 93.9238 460.749 96.5692C458.128 98.0558 456.188 101.256 456.012 104.304C455.861 107.126 457.146 109.671 459.64 111.485C460.724 112.291 461.706 112.921 462.563 113.475C465.687 115.516 467.274 116.524 469.593 122.168C470.374 124.057 470.928 125.72 471.457 127.307C473.069 132.17 474.354 136.025 480.401 140.56C485.97 144.717 487.884 147.741 488.363 148.648V162.984C488.363 164.093 489.27 165 490.379 165H527.768C528.877 165 529.784 164.093 529.784 162.984C529.784 159.205 529.683 156.458 529.607 154.468C529.406 148.698 529.406 148.698 533.034 142.626C533.815 141.316 534.798 139.678 535.957 137.688C541.046 128.945 543.641 117.884 543.641 104.783C543.641 99.5931 539.408 95.3853 534.218 95.3853L534.219 95.3854ZM532.48 135.647C531.321 137.613 530.364 139.25 529.583 140.535C525.451 147.439 525.325 147.817 525.577 154.62C525.627 156.207 525.703 158.273 525.728 160.969H492.37V148.22C492.37 147.968 492.319 147.741 492.244 147.514C492.093 147.086 490.43 143.105 482.795 137.361C477.756 133.581 476.824 130.76 475.262 126.048C474.733 124.461 474.128 122.672 473.297 120.656C470.5 113.854 468.081 112.292 464.73 110.099C463.873 109.545 462.992 108.966 461.984 108.235C460.598 107.227 459.943 105.993 460.019 104.531C460.119 102.566 461.48 100.777 462.714 100.072C464.478 99.0639 471.76 102.087 476.396 107.076L481.007 112.04C481.561 112.644 482.443 112.846 483.224 112.543C484.005 112.241 484.509 111.485 484.509 110.654V55.6028C484.509 52.6549 486.927 50.2362 489.875 50.2362C492.848 50.2362 495.242 52.6549 495.242 55.6028V110.327C495.242 111.435 496.149 112.342 497.258 112.342C498.366 112.342 499.273 111.435 499.273 110.327V83.543C499.273 80.57 501.692 78.1763 504.64 78.1763C507.588 78.1763 510.007 80.5951 510.007 83.543V110.327C510.007 111.435 510.914 112.342 512.022 112.342C513.131 112.342 514.038 111.435 514.038 110.327V95.7132C514.038 92.7653 516.457 90.3466 519.404 90.3466C522.377 90.3466 524.771 92.7653 524.771 95.7132V110.327C524.771 111.435 525.678 112.342 526.787 112.342C527.895 112.342 528.802 111.435 528.802 110.327V104.784C528.802 101.811 531.221 99.4172 534.169 99.4172C537.117 99.4172 539.536 101.836 539.536 104.784C539.586 117.18 537.218 127.56 532.481 135.647L532.48 135.647ZM475.059 68.4266C471.985 64.874 470.272 60.3136 470.272 55.6021C470.272 44.7932 479.065 36 489.874 36C500.683 36 509.476 44.7932 509.476 55.6021C509.476 60.3136 507.788 64.874 504.689 68.4266C504.286 68.8801 503.732 69.1321 503.152 69.1321C502.673 69.1321 502.22 68.9809 501.842 68.6282C501.01 67.8975 500.91 66.6125 501.64 65.7812C504.084 62.9593 505.445 59.3311 505.445 55.6021C505.445 47.0104 498.466 40.0313 489.874 40.0313C481.282 40.0313 474.303 47.0104 474.303 55.6021C474.303 59.3562 475.664 62.9593 478.108 65.7812C478.839 66.6126 478.738 67.8976 477.906 68.6282C477.075 69.3587 475.79 69.2833 475.059 68.4266H475.059Z" fill="white"/>
</svg>
